<svg xmlns="http://www.w3.org/2000/svg" width="89" height="16" viewBox="0 0 89 16" fill="none">
<path d="M8.7504 0L10.5465 5.52781H16.3588L11.6565 8.94419L13.4526 14.472L8.7504 11.0556L4.04817 14.472L5.84426 8.94419L1.14203 5.52781H6.95431L8.7504 0Z" fill="#FF8A00"/>
<path d="M26.7504 0.000244141L28.5465 5.52806H34.3588L29.6565 8.94443L31.4526 14.4722L26.7504 11.0559L22.0482 14.4722L23.8443 8.94443L19.142 5.52806H24.9543L26.7504 0.000244141Z" fill="#FF8A00"/>
<path d="M44.7504 0L46.5465 5.52781H52.3588L47.6565 8.94419L49.4526 14.472L44.7504 11.0556L40.0482 14.472L41.8443 8.94419L37.142 5.52781H42.9543L44.7504 0Z" fill="#FF8A00"/>
<path d="M62.7494 0L64.5455 5.52781H70.3578L65.6556 8.94419L67.4517 14.472L62.7494 11.0556L58.0472 14.472L59.8433 8.94419L55.1411 5.52781H60.9533L62.7494 0Z" fill="#FF8A00"/>
<path d="M80.7494 0.000244141L82.5455 5.52806H88.3578L83.6556 8.94443L85.4517 14.4722L80.7494 11.0559L76.0472 14.4722L77.8433 8.94443L73.1411 5.52806H78.9533L80.7494 0.000244141Z" fill="url(#paint0_linear_4871_26347)"/>
<defs>
<linearGradient id="paint0_linear_4871_26347" x1="72.7495" y1="8.00017" x2="88.7493" y2="8.00017" gradientUnits="userSpaceOnUse">
<stop stop-color="#FF8A00"/>
<stop offset="0.708233" stop-color="#FF8A00" stop-opacity="0.929934"/>
<stop offset="0.708333" stop-color="#ccc"/>
<stop offset="1" stop-color="#ccc"/>
</linearGradient>
</defs>
</svg>