<svg xmlns="http://www.w3.org/2000/svg" width="88" height="15" viewBox="0 0 88 15" fill="none">
<path d="M7.7504 0.00012207L9.5465 5.52793H15.3588L10.6565 8.94431L12.4526 14.4721L7.7504 11.0557L3.04817 14.4721L4.84426 8.94431L0.142032 5.52793H5.95431L7.7504 0.00012207Z" fill="#FF8A00"/>
<path d="M25.7504 0.000366211L27.5465 5.52818H33.3588L28.6565 8.94455L30.4526 14.4724L25.7504 11.056L21.0482 14.4724L22.8443 8.94455L18.142 5.52818H23.9543L25.7504 0.000366211Z" fill="#FF8A00"/>
<path d="M43.7504 0.00012207L45.5465 5.52793H51.3588L46.6565 8.94431L48.4526 14.4721L43.7504 11.0557L39.0482 14.4721L40.8443 8.94431L36.142 5.52793H41.9543L43.7504 0.00012207Z" fill="#FF8A00"/>
<path d="M61.7494 0.00012207L63.5455 5.52793H69.3578L64.6556 8.94431L66.4517 14.4721L61.7494 11.0557L57.0472 14.4721L58.8433 8.94431L54.1411 5.52793H59.9533L61.7494 0.00012207Z" fill="#FF8A00"/>
<path d="M79.7494 0.000366211L81.5455 5.52818H87.3578L82.6556 8.94455L84.4517 14.4724L79.7494 11.056L75.0472 14.4724L76.8433 8.94455L72.1411 5.52818H77.9533L79.7494 0.000366211Z" fill="url(#paint0_linear_4810_17443)"/>
<defs>
<linearGradient id="paint0_linear_4810_17443" x1="71.7495" y1="8.00029" x2="87.7493" y2="8.00029" gradientUnits="userSpaceOnUse">
<stop stop-color="#FF8A00"/>
<stop offset="0.497159" stop-color="#FF8A00" stop-opacity="0.929934"/>
<stop offset="0.497259" stop-color="#ccc"/>
<stop offset="1" stop-color="#ccc"/>
</linearGradient>
</defs>
</svg>